<svg width="48" height="48" viewBox="0 0 48 48" fill="none" xmlns="http://www.w3.org/2000/svg">
<rect width="48" height="48" rx="12" fill="#111113"/>
<path d="M15.5 30.5002L15.4593 29.7513C15.1076 29.7704 14.8166 30.0316 14.7598 30.3792C14.703 30.7268 14.8957 31.0671 15.223 31.1972L15.5 30.5002ZM31.5 21.0002L31.05 20.4002C30.8611 20.5419 30.75 20.7641 30.75 21.0002H31.5ZM33.5 19.5L33.95 20.1C34.2083 19.9063 34.3136 19.569 34.2115 19.2628C34.1094 18.9566 33.8228 18.75 33.5 18.75L33.5 19.5ZM31.5 19.5001L30.9 19.05L29.9999 20.2501L31.5 20.2501L31.5 19.5001ZM33 17.5002L33.6 17.9502C33.8087 17.6719 33.7987 17.2867 33.5758 17.0196C33.3529 16.7526 32.9757 16.6738 32.6646 16.8294L33 17.5002ZM31 18.5002L30.5641 19.1105C30.7901 19.272 31.0869 19.2952 31.3354 19.171L31 18.5002ZM24.5 22.0002L24.3355 22.7319C24.5577 22.7819 24.7907 22.7281 24.9686 22.5858C25.1464 22.4435 25.25 22.228 25.25 22.0002H24.5ZM16.5 17.5002L17.1144 17.0701C16.9621 16.8525 16.7061 16.7317 16.4413 16.7525C16.1765 16.7733 15.9425 16.9326 15.826 17.1712L16.5 17.5002ZM18 23.0002L17.9926 23.7501C18.2903 23.7531 18.5616 23.5796 18.6838 23.3082C18.8061 23.0368 18.7563 22.7188 18.5568 22.4977L18 23.0002ZM16 22.5002L16.392 21.8608C16.1414 21.7072 15.8242 21.7141 15.5806 21.8784C15.337 22.0428 15.2117 22.3343 15.2603 22.6241L16 22.5002ZM19 26.0002V26.7502C19.3537 26.7502 19.6593 26.5031 19.7334 26.1572C19.8074 25.8114 19.6298 25.4608 19.3071 25.3159L19 26.0002ZM17 26.0002V25.2502C16.755 25.2502 16.5254 25.3698 16.3851 25.5707C16.2448 25.7716 16.2115 26.0283 16.2958 26.2583L17 26.0002ZM21 28.5002L21.5496 29.0105C21.7465 28.7984 21.8039 28.4919 21.6969 28.223C21.5899 27.9541 21.3378 27.7707 21.049 27.7518L21 28.5002ZM15.223 31.1972C19.2686 32.8051 23.505 32.6991 26.7638 30.9409C30.053 29.1662 32.25 25.7574 32.25 21.0002H30.75C30.75 25.2429 28.8239 28.125 26.0515 29.6208C23.2488 31.1329 19.4852 31.277 15.777 29.8032L15.223 31.1972ZM31.95 21.6002L33.95 20.1L33.05 18.9L31.05 20.4002L31.95 21.6002ZM33.5 18.75L31.5 18.7501L31.5 20.2501L33.5 20.25L33.5 18.75ZM32.1 19.9501L33.6 17.9502L32.4 17.0502L30.9 19.05L32.1 19.9501ZM32.6646 16.8294L30.6646 17.8294L31.3354 19.171L33.3354 18.171L32.6646 16.8294ZM31.4359 17.8899C29.5317 16.5296 27.5837 16.2824 26.0617 17.1635C24.567 18.0289 23.75 19.8332 23.75 22.0002H25.25C25.25 20.167 25.933 18.9713 26.8133 18.4616C27.6663 17.9678 28.9683 17.9706 30.5641 19.1105L31.4359 17.8899ZM24.6645 21.2685C22.5895 20.8019 21.1337 20.3524 19.9814 19.7254C18.8512 19.1104 17.9794 18.3057 17.1144 17.0701L15.8856 17.9303C16.8622 19.3253 17.9001 20.3006 19.2644 21.043C20.6066 21.7733 22.23 22.2585 24.3355 22.7319L24.6645 21.2685ZM15.826 17.1712C15.3522 18.1422 15.0726 19.0754 15.3316 20.1544C15.5778 21.1799 16.2858 22.22 17.4432 23.5026L18.5568 22.4977C17.4275 21.2461 16.9433 20.4422 16.7902 19.8042C16.6498 19.2197 16.7636 18.67 17.174 17.8291L15.826 17.1712ZM18.0074 22.2502C17.5666 22.2459 17.2952 22.22 17.0745 22.166C16.8653 22.1147 16.6675 22.0296 16.392 21.8608L15.608 23.1396C15.9748 23.3644 16.3172 23.5248 16.7176 23.6229C17.1065 23.7182 17.514 23.7455 17.9926 23.7501L18.0074 22.2502ZM15.2603 22.6241C15.4352 23.6682 15.7433 24.4792 16.3398 25.1482C16.9191 25.7979 17.7108 26.2436 18.6929 26.6844L19.3071 25.3159C18.3652 24.8932 17.8184 24.5526 17.4594 24.1499C17.1176 23.7666 16.8876 23.2593 16.7397 22.3763L15.2603 22.6241ZM19 25.2502H17V26.7502H19V25.2502ZM16.2958 26.2583C16.6173 27.1353 17.016 27.8985 17.8026 28.4277C18.5621 28.9387 19.5773 29.1587 20.951 29.2486L21.049 27.7518C19.739 27.6661 19.0577 27.4642 18.6399 27.1832C18.2492 26.9203 17.9898 26.5213 17.7042 25.7421L16.2958 26.2583ZM20.4504 27.9899C19.8567 28.6293 19.3505 29.0046 18.6659 29.257C17.9504 29.5208 16.993 29.668 15.4593 29.7513L15.5407 31.2491C17.1044 31.1642 18.2488 31.0095 19.1848 30.6644C20.1519 30.3078 20.8469 29.7673 21.5496 29.0105L20.4504 27.9899Z" fill="#C8BCF6"/>
</svg>
